<?xml version="1.0" encoding="UTF-8"?>
<svg width="16px" height="12px" viewBox="0 0 16 12" version="1.1" xmlns="http://www.w3.org/2000/svg" xmlns:xlink="http://www.w3.org/1999/xlink">
    <!-- Generator: Sketch 53.2 (72643) - https://sketchapp.com -->
    <title>Path</title>
    <desc>Created with Sketch.</desc>
    <g id="Welcome" stroke="none" stroke-width="1" fill="none" fill-rule="evenodd">
        <g id="Basic-Home" transform="translate(-563.000000, -1012.000000)" fill="#FFFFFF" fill-rule="nonzero">
            <g id="Group-3-Copy-10" transform="translate(570.000000, 1018.000000) rotate(-180.000000) translate(-570.000000, -1018.000000) translate(542.000000, 990.000000)">
                <path d="M20.0866037,28.3724736 L32.1330794,28.3724736 L28.9802396,31.6305566 C28.6649556,31.956365 28.6649556,32.4790158 28.9802396,32.8048241 C29.1378815,32.9677283 29.3415025,33.0491803 29.5516918,33.0491803 C29.7618811,33.0491803 29.965502,32.9677283 30.123144,32.8048241 L34.6487829,28.1281173 C34.9640669,27.802309 34.9640669,27.2796582 34.6487829,26.9538499 L30.123144,22.2771431 C29.80786,21.9513348 29.302092,21.9513348 28.986808,22.2771431 C28.671524,22.6029514 28.671524,23.1256023 28.986808,23.4514106 L32.1396478,26.7094937 L20.0866037,26.7094937 C19.6399514,26.7094937 19.2786885,27.0828157 19.2786885,27.5443774 C19.2786885,28.0059392 19.6399514,28.3724736 20.0866037,28.3724736 Z" id="Path"></path>
            </g>
        </g>
    </g>
</svg>